<?xml version="1.0" encoding="UTF-8"?>
<svg id="_레이어_1" data-name="레이어 1" xmlns="http://www.w3.org/2000/svg" width="64" height="64" viewBox="0 0 64 64">
  <path d="M33.17,2.45c2.59,0,4.85.21,6.79.64,1.94.43,3.61,1,5.01,1.71,1.4.72,2.56,1.55,3.48,2.52s1.65,1.97,2.18,3.03c.53,1.06.91,2.14,1.13,3.25.22,1.11.33,2.18.33,3.21,0,1.54-.14,2.95-.43,4.23-.29,1.28-.81,2.44-1.58,3.46-.76,1.03-1.79,1.92-3.09,2.69s-2.95,1.41-4.96,1.92c1.66.51,3.18,1.13,4.54,1.86,1.36.73,2.53,1.64,3.5,2.74.97,1.1,1.72,2.44,2.25,4.02.53,1.58.8,3.49.8,5.74,0,2.41-.4,4.63-1.21,6.64s-1.98,3.73-3.5,5.18c-1.52,1.44-3.39,2.57-5.58,3.38-2.2.81-4.68,1.22-7.45,1.22h-15.53V2.45h13.31ZM28.73,27.07h4.44c.74,0,1.53-.04,2.36-.13.83-.09,1.66-.25,2.48-.5.82-.25,1.61-.6,2.37-1.06.76-.46,1.43-1.07,1.99-1.83.57-.76,1.02-1.69,1.37-2.79s.52-2.42.52-3.96c0-2.05-.39-3.63-1.18-4.74-.79-1.11-1.87-1.92-3.26-2.44-1.39-.51-3.03-.81-4.92-.9-1.9-.09-3.95-.13-6.17-.13v18.46ZM28.73,53.74h4.44c1.66,0,3.18-.15,4.54-.45,1.36-.3,2.53-.83,3.5-1.6s1.72-1.82,2.25-3.14c.53-1.32.8-3.01.8-5.06s-.27-3.74-.8-5.07c-.53-1.32-1.28-2.37-2.25-3.14-.97-.77-2.14-1.3-3.5-1.6-1.36-.3-2.88-.45-4.54-.45h-4.44v20.52Z" fill="#986b3f"/>
  <path d="M28.71,2.45c2.39,0,4.49.21,6.28.64,1.8.43,3.34,1,4.63,1.71,1.29.72,2.37,1.55,3.22,2.52.85.96,1.53,1.97,2.02,3.03.49,1.06.84,2.14,1.04,3.25.2,1.11.3,2.18.3,3.21,0,1.54-.13,2.95-.4,4.23-.27,1.28-.75,2.44-1.46,3.46-.71,1.03-1.66,1.92-2.85,2.69-1.2.77-2.73,1.41-4.58,1.92,1.54.51,2.94,1.13,4.2,1.86s2.34,1.64,3.24,2.74c.9,1.1,1.59,2.44,2.08,4.02s.74,3.49.74,5.74c0,2.41-.37,4.63-1.12,6.64-.75,2.01-1.83,3.73-3.24,5.18-1.41,1.44-3.13,2.57-5.16,3.38-2.03.81-4.33,1.22-6.89,1.22h-14.36V2.45h12.31ZM24.6,27.07h4.1c.68,0,1.41-.04,2.18-.13.77-.09,1.53-.25,2.29-.5.76-.25,1.49-.6,2.2-1.06.7-.46,1.32-1.07,1.84-1.83.52-.76.95-1.69,1.27-2.79.32-1.1.48-2.42.48-3.96,0-2.05-.36-3.63-1.09-4.74-.73-1.11-1.73-1.92-3.01-2.44-1.28-.51-2.8-.81-4.55-.9-1.75-.09-3.65-.13-5.71-.13v18.46ZM24.6,53.74h4.1c1.54,0,2.94-.15,4.2-.45,1.26-.3,2.34-.83,3.24-1.6.9-.77,1.59-1.82,2.08-3.14.49-1.32.74-3.01.74-5.06s-.25-3.74-.74-5.07c-.49-1.32-1.19-2.37-2.08-3.14-.9-.77-1.98-1.3-3.24-1.6-1.26-.3-2.66-.45-4.2-.45h-4.1v20.52Z" fill="#402400"/>
</svg>